STARTFONT 2.3
FONT -FontForge-Henny Penny-Book-R-Normal--16-160-72-72-P-91-ISO10646-1
SIZE 16 72 72  4
FONTBOUNDINGBOX 23 30 -3 -11
COMMENT "Generated by fontforge, http://fontforge.sourceforge.net"
COMMENT "Copyright (c) 2012, Brownfox (gayaneh.b@gmail.com), with Reserved Font Name "Henny Penny""
STARTPROPERTIES 40
FOUNDRY "FontForge"
FAMILY_NAME "Henny Penny"
WEIGHT_NAME "Book"
SLANT "R"
SETWIDTH_NAME "Normal"
ADD_STYLE_NAME ""
PIXEL_SIZE 16
POINT_SIZE 160
RESOLUTION_X 72
RESOLUTION_Y 72
SPACING "P"
AVERAGE_WIDTH 91
CHARSET_REGISTRY "ISO10646"
CHARSET_ENCODING "1"
FONTNAME_REGISTRY ""
CHARSET_COLLECTIONS "ISO10646-1"
BITS_PER_PIXEL 4
FONT_NAME "HennyPenny-Regular"
FACE_NAME "Henny Penny"
COPYRIGHT "Copyright (c) 2012, Brownfox (gayaneh.b@gmail.com), with Reserved Font Name "Henny Penny""
FONT_VERSION "1.001"
FONT_ASCENT 13
FONT_DESCENT 3
UNDERLINE_POSITION -2
UNDERLINE_THICKNESS 1
X_HEIGHT 9
CAP_HEIGHT 12
RAW_ASCENT 799
RAW_DESCENT 200
NORM_SPACE 4
RELATIVE_WEIGHT 40
RELATIVE_SETWIDTH 50
SUPERSCRIPT_X 0
SUPERSCRIPT_Y 5
SUPERSCRIPT_SIZE 9
SUBSCRIPT_X 0
SUBSCRIPT_Y 1
SUBSCRIPT_SIZE 9
AVG_LOWERCASE_WIDTH 81
AVG_UPPERCASE_WIDTH 116
ENDPROPERTIES
CHARS 233
STARTCHAR space
ENCODING 32
SWIDTH 270 0
DWIDTH 4 0
BBX 1 1 0 0
BITMAP
00
ENDCHAR
STARTCHAR exclam
ENCODING 33
SWIDTH 249 0
DWIDTH 4 0
BBX 4 16 0 -1
BITMAP
1DB0
2FF1
1FF2
0EF1
0BF0
09E0
07D0
06B0
05A0
0480
0450
0320
0000
0000
0DA0
0DA0
ENDCHAR
STARTCHAR quotedbl
ENCODING 34
SWIDTH 292 0
DWIDTH 5 0
BBX 4 6 0 7
BITMAP
2C3B
2E4D
1D3C
0C3B
0929
0506
ENDCHAR
STARTCHAR numbersign
ENCODING 35
SWIDTH 1030 0
DWIDTH 17 0
BBX 15 18 1 -5
BITMAP
0000000240000000
0000000710000000
0000000803400000
0000005308000000
3211019037000000
45567DB7E7456740
00000A0480000000
0000270910000000
0000922802471000
2458EAE965310000
764C61A000000000
001D074000000000
00870B0000000000
01D1660000000000
0480B10000000000
0003900000000000
000A300000000000
0009000000000000
ENDCHAR
STARTCHAR dollar
ENCODING 36
SWIDTH 799 0
DWIDTH 13 0
BBX 10 18 1 -3
BITMAP
0000001400
0000004307
00019EFDC8
000BF376F4
001FD070A1
001FF47060
000BFE5000
0003EFD100
00005FFB00
00000BFF60
0130178FE0
0440440DF3
07607009F3
0BC0700AE0
2ADA716F70
3019EEC500
0005200000
0006000000
ENDCHAR
STARTCHAR percent
ENCODING 37
SWIDTH 789 0
DWIDTH 13 0
BBX 13 15 0 0
BITMAP
02BEC400007000
0CA19E10055000
1F601F402A0000
1F800F40B10000
0CE25E18500000
02BEC349000000
000001B0000000
00000A30000000
00006606DEA200
0003A06E41BC00
000B10CA005F20
008400C9006F20
0470008E31CB00
1A00001AEEA100
62000000000000
ENDCHAR
STARTCHAR ampersand
ENCODING 38
SWIDTH 773 0
DWIDTH 12 0
BBX 12 15 0 -1
BITMAP
0007DE800000
005B22E10000
00A401E10000
00C30A800000
00B7AC100000
008FD1000580
00BF5004AFA0
08FEC0531A90
1FD5F6000760
6FA0BE200920
7FA02EC10A00
4FE105FB8304
0BFB308FE527
017DEEA9FFF3
000000004D90
ENDCHAR
STARTCHAR quotesingle
ENCODING 39
SWIDTH 174 0
DWIDTH 3 0
BBX 2 5 0 7
BITMAP
1C
2F
0E
0A
05
ENDCHAR
STARTCHAR parenleft
ENCODING 40
SWIDTH 431 0
DWIDTH 7 0
BBX 7 23 0 -7
BITMAP
00060000
00560000
00C00000
06A00000
0C600000
1F300000
5F100000
8E000000
AE000000
BD000000
CE000000
BF000000
AF100000
7F500000
4F800000
0ED00000
08F40000
01EA0000
006F3000
000BB000
0001D600
00002C30
00000150
ENDCHAR
STARTCHAR parenright
ENCODING 41
SWIDTH 443 0
DWIDTH 7 0
BBX 7 16 0 -4
BITMAP
09810000
008E4000
000AE300
0001ED00
00007F60
00003FB0
00000ED0
00000DE0
00000DD0
00001FA0
00004F50
0000AD10
0004F400
003D6000
06C40000
65000000
ENDCHAR
STARTCHAR asterisk
ENCODING 42
SWIDTH 490 0
DWIDTH 8 0
BBX 7 7 0 8
BITMAP
00072000
000B7030
000697C0
2DA5BA10
0459D300
008B2E50
007108C0
ENDCHAR
STARTCHAR plus
ENCODING 43
SWIDTH 440 0
DWIDTH 7 0
BBX 7 9 0 1
BITMAP
00042000
00052000
00052000
00073310
2FEFDA20
00054000
00035000
00017000
00005000
ENDCHAR
STARTCHAR comma
ENCODING 44
SWIDTH 251 0
DWIDTH 4 0
BBX 4 5 0 -2
BITMAP
1DC1
1FF3
05F1
0190
0710
ENDCHAR
STARTCHAR hyphen
ENCODING 45
SWIDTH 436 0
DWIDTH 7 0
BBX 7 2 0 3
BITMAP
02101100
1AEFFC10
ENDCHAR
STARTCHAR period
ENCODING 46
SWIDTH 238 0
DWIDTH 4 0
BBX 3 3 0 -1
BITMAP
0CB0
3FF0
1CA0
ENDCHAR
STARTCHAR slash
ENCODING 47
SWIDTH 690 0
DWIDTH 11 0
BBX 11 15 0 0
BITMAP
000000000060
000000000640
000000003900
00000000B100
000000094000
000000580000
000002B00000
00000B200000
000075000000
000390000000
001B10000000
009300000000
056000000000
1A0000000000
810000000000
ENDCHAR
STARTCHAR zero
ENCODING 48
SWIDTH 723 0
DWIDTH 12 0
BBX 12 12 0 1
BITMAP
0018DFDB4000
02DB3028F800
0CC000007F50
5F5000000ED0
AF1000000AF3
CF00000008F5
BF10000008F6
9F30000009F4
4F8000000CE1
0CF300003F80
01CE6104EB00
0007CEEC6000
ENDCHAR
STARTCHAR one
ENCODING 49
SWIDTH 505 0
DWIDTH 8 0
BBX 8 15 0 -1
BITMAP
00052000
000D6000
00AF8000
2BEFB000
B40DD000
0009F100
0006F300
0005F600
0003F900
0002FC00
0001FF10
0001FF80
0009FFFB
04DB6200
05300000
ENDCHAR
STARTCHAR two
ENCODING 50
SWIDTH 534 0
DWIDTH 9 0
BBX 9 14 0 -1
BITMAP
03BEEA1000
1A219FC000
71000EF300
60000CF400
50000DF100
00003F9000
00009D1000
0005E20000
004C200000
06A1000000
5E71000030
019E831620
0003CFF700
000008C000
ENDCHAR
STARTCHAR three
ENCODING 51
SWIDTH 511 0
DWIDTH 8 0
BBX 9 14 0 -1
BITMAP
1520000000
4FFFED7000
3E301B2000
3600460000
3101700000
0009500000
0004DD4000
00001CF500
400003FD00
700000DF20
900000CF20
650001EE00
0B612AF600
018EFC5000
ENDCHAR
STARTCHAR four
ENCODING 52
SWIDTH 712 0
DWIDTH 11 0
BBX 12 16 0 -2
BITMAP
000000300000
000001B00000
00000BA00000
00007EA00000
00061AC00000
006207F10000
074005F40000
8C0002F70000
5BD710FB0000
0028EAEF1040
000016DFED40
0000007FB900
0000004F9000
0000003FE000
000006CEFA10
0000000027B2
ENDCHAR
STARTCHAR five
ENCODING 53
SWIDTH 757 0
DWIDTH 12 0
BBX 12 16 0 -2
BITMAP
000000000001
000000BA2009
000005BFF999
00000704EFF3
000052001AA0
000060000000
0004FDA40000
000017EF9000
0000002DF500
42000007FA00
70000004FC00
80000005FA00
90000008F600
9300001EE100
2C6204CE3000
019DFD920000
ENDCHAR
STARTCHAR six
ENCODING 54
SWIDTH 598 0
DWIDTH 10 0
BBX 10 12 0 0
BITMAP
0029DFD810
03EB3127B0
0CD0000054
5F97DFC600
9FE8116F80
BFB00007F1
BF600003F4
9F600001F6
6F800003F4
1ED00007D0
04EB315E40
0029EFC400
ENDCHAR
STARTCHAR seven
ENCODING 55
SWIDTH 507 0
DWIDTH 8 0
BBX 8 14 0 -1
BITMAP
32100247
DFFFFFF8
B5137CE1
80000360
40000900
00004800
0000B200
0003C000
000A8000
002F5000
008F2000
00EF1000
03FD0000
01100000
ENDCHAR
STARTCHAR eight
ENCODING 56
SWIDTH 476 0
DWIDTH 8 0
BBX 8 13 0 -1
BITMAP
02AEE800
0DF41750
4FD00070
4FF20430
0DFD6500
03EFF600
03CBFF70
3C102DF2
A40002F7
D20000C8
C50000E5
5E5119C0
05CEE910
ENDCHAR
STARTCHAR nine
ENCODING 57
SWIDTH 601 0
DWIDTH 10 0
BBX 10 12 0 0
BITMAP
019EFD9100
1DB215EE20
9F10006FB0
CD00001FF3
CE00000EF6
8F40000FF6
1EE5119FF6
02AEFD9FF3
0000003FD0
0000009F60
393029F900
04BEEB5000
ENDCHAR
STARTCHAR colon
ENCODING 58
SWIDTH 246 0
DWIDTH 4 0
BBX 4 9 0 -1
BITMAP
1DC0
1EC0
0000
0000
0000
0000
0000
0BD1
0CD1
ENDCHAR
STARTCHAR semicolon
ENCODING 59
SWIDTH 266 0
DWIDTH 4 0
BBX 4 11 0 -4
BITMAP
0AE4
0AE3
0000
0000
0000
0000
0CD1
1FF4
06E1
0470
1700
ENDCHAR
STARTCHAR less
ENCODING 60
SWIDTH 522 0
DWIDTH 8 0
BBX 8 8 0 1
BITMAP
00000051
00001950
00059200
02A60000
1D800000
006B5000
00017B40
00000184
ENDCHAR
STARTCHAR equal
ENCODING 61
SWIDTH 655 0
DWIDTH 11 0
BBX 10 4 0 3
BITMAP
001469BDE9
1897643210
0000000000
1EFEDDCB50
ENDCHAR
STARTCHAR greater
ENCODING 62
SWIDTH 533 0
DWIDTH 9 0
BBX 8 8 0 1
BITMAP
17200000
01870000
0004A400
000008A1
000000B4
00002A40
00069100
00840000
ENDCHAR
STARTCHAR question
ENCODING 63
SWIDTH 564 0
DWIDTH 9 0
BBX 9 15 0 -2
BITMAP
007CED9200
09A217FD10
3F2000AF60
8F40008F80
AFD100BF60
8FF604FD10
2DE33ED300
0004E91000
004A300000
0080000000
0370000000
01DB000000
0000000000
008D000000
007D000000
ENDCHAR
STARTCHAR at
ENCODING 64
SWIDTH 898 0
DWIDTH 14 0
BBX 14 16 0 -5
BITMAP
000017CEEC8100
0004D831138D20
004B10000004B0
01B10000000084
07403CFD9F6028
0902E914EF5009
080AE0008F4008
260DB0005F3008
350FC0006F2008
260DE1009F3045
0907FA149D81B0
0A007DFD24DD30
0650000BD20000
01C20007F60000
003D7104E30000
0002AEEC500000
ENDCHAR
STARTCHAR A
ENCODING 65
SWIDTH 784 0
DWIDTH 13 0
BBX 13 15 0 -2
BITMAP
000038C0000000
003EEFF5000000
00001CFA000000
000054DE100000
0000808F500000
0000804FA00000
0005810FF10000
000ABEBFF60000
001B016DFB0000
00760004FF2000
02D10000DF7000
EFF400008FD000
037C00004FF810
000000006FFFB0
0000000A941000
ENDCHAR
STARTCHAR B
ENCODING 66
SWIDTH 685 0
DWIDTH 11 0
BBX 11 17 0 -3
BITMAP
4557ADFD6000
05FE116FF300
00AE000AF500
007F0009F200
006F100C7000
005F44940000
004FECEF9100
004F4007FC00
004F5000AF60
004F60005F90
005F70004FB0
005F90005F90
006FA0009F40
008FE316FA00
02DFFFFD7000
593000000000
300000000000
ENDCHAR
STARTCHAR C
ENCODING 67
SWIDTH 742 0
DWIDTH 12 0
BBX 12 15 0 -2
BITMAP
000000000060
000000000280
0006BEFECE80
01CF82027FA0
0CF6000004D0
5FD000000062
AF9000000000
DF7000000000
EF8000000000
DF9000000005
AFD000000007
5FF400000026
0BFD10000091
01BFD6113A50
0005BEFDA300
ENDCHAR
STARTCHAR D
ENCODING 68
SWIDTH 726 0
DWIDTH 12 0
BBX 12 13 0 -3
BITMAP
5989BDFEB400
18FE3028FF50
00DC00007FE0
00BC00001FF4
00AC00000DF5
009D00000DF4
009F00001FF1
009F20007F90
00AFA117FA00
00DFFFD93000
05FC61000000
1D6000000000
920000000000
ENDCHAR
STARTCHAR E
ENCODING 69
SWIDTH 557 0
DWIDTH 9 0
BBX 9 15 0 -2
BITMAP
554468BE00
2EFB210900
08F9000500
05FA000000
03FB000000
01FB050000
00EFEE0000
00CD190000
00AE060000
009F000000
007F100010
007F200060
007F4004B0
9FFFFCDFA0
0001245630
ENDCHAR
STARTCHAR F
ENCODING 70
SWIDTH 533 0
DWIDTH 9 0
BBX 9 14 0 -1
BITMAP
0000037CC0
589B7107A0
05FF300470
00EF300530
00BF300200
009F424000
007F582000
005FFF1000
004F582000
002F642000
001F610000
001F700000
017FA00000
7FCBDC0000
ENDCHAR
STARTCHAR G
ENCODING 71
SWIDTH 750 0
DWIDTH 12 0
BBX 12 13 0 0
BITMAP
000000000001
000000000009
0006CEEA2085
02CF7213AEC0
0CF500000E60
6FC000000B00
BF8000000400
DF60000136A5
DF7002EEFFB0
BFA000006F70
5FF200005F80
09FD4014CCA0
006CEED82010
ENDCHAR
STARTCHAR H
ENCODING 72
SWIDTH 743 0
DWIDTH 12 0
BBX 12 17 0 -3
BITMAP
373000000000
03FFFE600000
00DF3001259A
00CF008FFFA0
00CF00009F70
00CF00005F60
00CF00004F50
00CF00128F50
00CFEEECEF50
00CF41006F40
00DF00004F40
00DF00002F40
00DF10001F40
00EF10005F60
02FF203FFFF7
7EFFA0021011
420130000000
ENDCHAR
STARTCHAR I
ENCODING 73
SWIDTH 438 0
DWIDTH 7 0
BBX 9 16 -1 -3
BITMAP
3CBAABDEC0
027FFE5100
000DF90000
000BF50000
000BF30000
000BF10000
000BE00000
000BD00000
000BB00000
000BA00000
000B900000
000B800000
000C800000
000EB10000
02BFFF8000
7B62100000
ENDCHAR
STARTCHAR J
ENCODING 74
SWIDTH 628 0
DWIDTH 10 0
BBX 11 19 0 -4
BITMAP
000000000030
00000136AE80
0005FFFFB100
000018FF4000
000000FF2000
000000CF2000
000000BF2000
000000AF1000
0000009F1000
0000009F0000
0000009E0000
000000AC0000
000000CA0000
000000E70000
3DE604F20000
BFF909C00000
D2202F400000
A504E8000000
2BFD50000000
ENDCHAR
STARTCHAR K
ENCODING 75
SWIDTH 866 0
DWIDTH 14 0
BBX 15 15 0 -1
BITMAP
0124931A41000000
CFFF700AFFF70000
07FD0007A2000000
02FC002900000000
01FD02A100000000
00FD1D7000000000
00EEBFC000000000
00DF2DF300000000
00BE06FC00004700
00BE00CF70000A10
00AE002EF5000830
009F0003DF812B00
00BF300018DFC400
08FFD30000000000
0001560000000000
ENDCHAR
STARTCHAR L
ENCODING 76
SWIDTH 660 0
DWIDTH 11 0
BBX 11 13 0 0
BITMAP
452000000000
4AFFEEF20000
006FF7100000
003FF2000000
003FF0000000
002FD0000000
002FC0000000
002FB0005000
002FA0003400
002F90002900
005FB1019E00
2AEFFFFFFF30
164211100000
ENDCHAR
STARTCHAR M
ENCODING 77
SWIDTH 1089 0
DWIDTH 17 0
BBX 18 14 0 -1
BITMAP
000000000000000110
0000000000000AFF60
0013100000002F9200
002CFF9000009F2000
0000CCF60001EF3000
000084FF30077F5000
0000639FD1172F8000
0000531EFA810EC000
00006307FF800AF100
00007100DE1007F500
00008000580004FA00
BD217000000003FF60
EFEC100000000BFFFC
7ED300000001862100
ENDCHAR
STARTCHAR N
ENCODING 78
SWIDTH 799 0
DWIDTH 13 0
BBX 13 17 0 -4
BITMAP
00120000000230
EFFF6000EEFE80
02EFF50006E100
00BBFE3000B000
00A1CFE2009000
00902EFC108000
008005FFB18000
0080009FFC8000
0080000CFF8000
00800002EF7000
008000003F7000
00800000055000
00900000000000
00B10000000000
04F50000000000
BEFF8000000000
00037000000000
ENDCHAR
STARTCHAR O
ENCODING 79
SWIDTH 747 0
DWIDTH 12 0
BBX 12 12 0 0
BITMAP
0018DFEB6000
03EA203BFC20
1EC00000AFC0
7F6000002FF5
CF3000000BFA
DF10000008FC
DF20000007FC
BF50000007FA
7FA000000AF5
1EF400002FC0
03EE7204DD20
0018CEEC7100
ENDCHAR
STARTCHAR P
ENCODING 80
SWIDTH 623 0
DWIDTH 10 0
BBX 10 14 0 -2
BITMAP
DEEFFFFEA1
02AFF518FA
002FC000FE
000FA000ED
000EA002FB
000EA02BF4
000FEEFB40
000FA00000
001FA00000
002FA00000
003FB00000
005FD00000
00BFF40000
3BFFFF9400
ENDCHAR
STARTCHAR Q
ENCODING 81
SWIDTH 804 0
DWIDTH 13 0
BBX 19 19 0 -7
BITMAP
0005BEFD930000000000
01BC3026EF8000000000
0AD100002DF800000000
4F50000004FF10000000
AF10000000CF70000000
DE000000008F90000000
DF000000006F90000000
CF200000005F80000000
AF60003DE87F50000000
4FD000A22DEE00000000
0BF9017006F700000000
01BFB5615DF900000000
0006BEFD93DF10000000
0000000000AF50000000
00000000007FA0000000
00000000003FF1000040
00000000000DF9000520
000000000004FF713800
0000000000004CFD8100
ENDCHAR
STARTCHAR R
ENCODING 82
SWIDTH 869 0
DWIDTH 14 0
BBX 15 12 0 -1
BITMAP
EFFFFFFD70000000
05FFC22CF4000000
00BF6006F9000000
007F4005F8000000
005F400AF3000000
004F429F70000000
002FFFFA00000000
002F42FF10000000
001F60AF90000230
005F902EF5000250
6FEEF704EF721920
0000251029EFD500
ENDCHAR
STARTCHAR S
ENCODING 83
SWIDTH 517 0
DWIDTH 8 0
BBX 10 15 -1 -2
BITMAP
0000000040
00019ED370
000AD219B0
000F900190
000DD00040
0008F80000
0000CF6000
00002DF500
000003FE20
1500007FB0
0A00000EF3
0A40000AF5
08D1000AF4
08BA314FB0
05019ED810
ENDCHAR
STARTCHAR T
ENCODING 84
SWIDTH 659 0
DWIDTH 11 0
BBX 11 17 0 -3
BITMAP
9D8421000000
9FFFFFFFFFE0
6B1005F116F0
370006F100B0
070006F10060
060007F10000
000008F10000
000009F10000
00000AF10000
00000AF10000
00000BF10000
00000CF10000
00000DF30000
00003FFA1000
0001CFFFFD00
000BA5100000
003200000000
ENDCHAR
STARTCHAR U
ENCODING 85
SWIDTH 690 0
DWIDTH 11 0
BBX 12 12 0 1
BITMAP
000003600000
1359DE500000
EFFFE2000000
07FF80AECCCA
01FF50029E10
00FF40000C00
00EF40000900
00DF50000800
00BF70000800
006FC0003600
000CF813B100
00019DEB2000
ENDCHAR
STARTCHAR V
ENCODING 86
SWIDTH 798 0
DWIDTH 13 0
BBX 14 12 0 0
BITMAP
00014890000001
CEFFF60000003C
017FF400014AE3
0007FB009FFF40
0000DF4000A700
00005FC000A000
00000DF6026000
000006FE281000
000000EFD70000
0000008FE10000
0000001E900000
00000007300000
ENDCHAR
STARTCHAR W
ENCODING 87
SWIDTH 1120 0
DWIDTH 18 0
BBX 21 14 -1 -1
BITMAP
0000000000000009631000
0000000000000003BFFFC0
00000300000000000E8100
0002A300000000001C0000
159ED00000000000750000
236FF10009200000A00000
0009F6004FC00004600000
0003FC0087F70009000000
0000DF4631EE2027000000
00008FC9009FB091000000
00003FF2003FFB80000000
00000D90000BFF10000000
000005200004F900000000
000000000000A100000000
ENDCHAR
STARTCHAR X
ENCODING 88
SWIDTH 868 0
DWIDTH 14 0
BBX 14 14 0 -1
BITMAP
00013693000000
EFFFFFB0000000
015CFF70024000
0000BFD0007EA1
00001DF700B310
000003FE383000
000000AFF60000
0000008EF60000
00000472ED0000
000039006F7000
0027E1000AE100
6FFFE20004FA00
0024AA06FEFFB3
00000000000124
ENDCHAR
STARTCHAR Y
ENCODING 89
SWIDTH 796 0
DWIDTH 13 0
BBX 15 16 0 -2
BITMAP
0024880000000000
BFFF810002731000
04DF700001AFFF20
002DF50000860000
0002EF5008600000
00004FF798000000
000007FFB0000000
000000DF30000000
0000009F00000000
0000008F10000000
0000009F10000000
000000BF20000000
000000DF30000000
000005FF60000000
0002EFFFD3000000
0000001377000000
ENDCHAR
STARTCHAR Z
ENCODING 90
SWIDTH 627 0
DWIDTH 10 0
BBX 11 15 0 -3
BITMAP
193101330000
1FFFFFF60000
1D306FF10000
25009FA00000
3200CF500000
0001FE000000
0005F8000000
0009F3000000
000EC0001300
003F70000700
007F20002B00
00CC0002BF10
02FB68CFFF50
06FB85210210
010000000000
ENDCHAR
STARTCHAR bracketleft
ENCODING 91
SWIDTH 344 0
DWIDTH 6 0
BBX 6 16 0 -3
BITMAP
07EB71
0BD110
0D9000
0F7000
2F6000
4F5000
5F4000
7F3000
8F3000
9F2000
AF2000
BF1000
CF2000
CF3000
CF7000
6DFFD1
ENDCHAR
STARTCHAR backslash
ENCODING 92
SWIDTH 347 0
DWIDTH 6 0
BBX 6 17 0 -2
BITMAP
800000
820000
360000
090000
090000
063000
027000
009000
008100
004600
001900
000A00
000740
000280
0000A0
000081
000035
ENDCHAR
STARTCHAR bracketright
ENCODING 93
SWIDTH 334 0
DWIDTH 5 0
BBX 6 15 0 -3
BITMAP
001400
2AFF30
117F50
006F70
005F80
004FA0
003FB0
003FC0
002FE0
002FF0
001FF1
002FF2
004FF2
01CA30
682000
ENDCHAR
STARTCHAR asciicircum
ENCODING 94
SWIDTH 658 0
DWIDTH 11 0
BBX 10 4 0 9
BITMAP
0000970000
0008FF8000
03CC5AFC40
2D600039D8
ENDCHAR
STARTCHAR underscore
ENCODING 95
SWIDTH 678 0
DWIDTH 11 0
BBX 10 2 0 -6
BITMAP
03589BCEEE
1654321100
ENDCHAR
STARTCHAR grave
ENCODING 96
SWIDTH 278 0
DWIDTH 4 0
BBX 4 3 0 12
BITMAP
1D30
07D1
0067
ENDCHAR
STARTCHAR a
ENCODING 97
SWIDTH 527 0
DWIDTH 8 0
BBX 9 11 0 -1
BITMAP
03CEB20000
0B31CC0000
0E706F3000
08E33F7000
00002FA000
06DFEFC000
6F511EE000
AC000CF200
9E315BF520
2BEC45F970
000000BE80
ENDCHAR
STARTCHAR b
ENCODING 98
SWIDTH 582 0
DWIDTH 9 0
BBX 11 18 -2 0
BITMAP
000160000000
015C70000000
3FFF80000000
003F80000000
000D90000000
000C90000000
000BA0000000
000BB0000000
000AC0000000
0009D0000000
0009E2AEE910
0008F7219F90
0007F1001EE0
0007F3000DF0
0006F6000ED0
0007FC219F60
002CFFFFD600
01D953100000
ENDCHAR
STARTCHAR c
ENCODING 99
SWIDTH 437 0
DWIDTH 7 0
BBX 7 9 0 1
BITMAP
008DEA00
0A61EF50
4C00AE20
99000000
B9000440
AB000090
7F100090
1EC21750
02BFD700
ENDCHAR
STARTCHAR d
ENCODING 100
SWIDTH 523 0
DWIDTH 8 0
BBX 9 15 0 1
BITMAP
000015B400
0002DEF400
000009F300
000008F300
000007F300
000007F200
000007F200
000006F100
000006F100
05CEEDF100
5FB207F100
BF3005F000
BF3005F000
6FB219F500
07DFEDCD70
ENDCHAR
STARTCHAR e
ENCODING 101
SWIDTH 434 0
DWIDTH 7 0
BBX 7 9 0 1
BITMAP
007DEA10
0AD22E80
4F500CA0
9F216F50
AFEFD600
AF300060
7F800080
1DF50570
02AEE900
ENDCHAR
STARTCHAR f
ENCODING 102
SWIDTH 299 0
DWIDTH 5 0
BBX 9 21 -1 -3
BITMAP
00003CEA00
0001C31B60
0007601C80
000C26FF50
000F06EA00
002F000000
008F213000
7DFFFA3000
107F300000
006F200000
006F200000
006F300000
006F300000
005F400000
005F500000
005F500000
005F600000
005F600000
006FB10000
02CFFF6000
0A62000000
ENDCHAR
STARTCHAR g
ENCODING 103
SWIDTH 567 0
DWIDTH 9 0
BBX 11 16 -1 -6
BITMAP
00000006EC20
000000348F70
003BEEE26E40
01EF41BD1000
05FB005F4000
05FA006F4000
01EE32CD0000
003DFEB30000
006B10000000
002BFEB71000
009C226EE200
09F20004F700
1FD00000F800
2FE10002F400
0CFB213C7000
019DFDA40000
ENDCHAR
STARTCHAR h
ENCODING 104
SWIDTH 566 0
DWIDTH 9 0
BBX 10 18 -1 -1
BITMAP
0002900000
028E900000
3EEF700000
001E600000
000E400000
000E300000
000F300000
001F200000
002F100000
003F000000
005F2BEA10
006E817F70
007F401FA0
009E000FB0
00BC001FB0
02ED102FC0
8FFFD1CEDE
0100012000
ENDCHAR
STARTCHAR i
ENCODING 105
SWIDTH 301 0
DWIDTH 5 0
BBX 5 11 0 1
BITMAP
04E500
04E400
026800
AFF800
09F600
06F500
06F300
06F200
06F100
09F400
9EEF70
ENDCHAR
STARTCHAR j
ENCODING 106
SWIDTH 367 0
DWIDTH 6 0
BBX 8 18 -2 -8
BITMAP
00006E20
00007E20
00100230
003CFFE0
00009FF2
00000DF4
000008F6
000004F7
000001F8
000000E8
000000E8
000000D7
1BE600E5
8FF800F2
BB5003D0
B2000980
69117C10
08DEA100
ENDCHAR
STARTCHAR k
ENCODING 107
SWIDTH 567 0
DWIDTH 9 0
BBX 11 19 -2 -3
BITMAP
0137C0000000
1EEFE0000000
0009E0000000
0006E0000000
0005E0000000
0005F0000000
0004F0000000
0004F1741000
0004F14EFC00
0003F21A3000
0003F4A10000
0003FEE00000
0003F7F30240
0002F6CA0070
0002F74F71A0
0003F905DE50
0007FD100000
02ADCCEC0000
001000000000
ENDCHAR
STARTCHAR l
ENCODING 108
SWIDTH 354 0
DWIDTH 6 0
BBX 7 16 -1 -1
BITMAP
00026000
003E7000
18FF7000
AABF7000
005F8000
003F9000
001F9000
000FA000
000DB000
000CC000
000AD000
0009E000
0008F000
0009F600
00FFFF80
00210110
ENDCHAR
STARTCHAR m
ENCODING 109
SWIDTH 708 0
DWIDTH 11 0
BBX 11 7 0 1
BITMAP
018100000000
3BF6DE49EB00
03F91DD18F40
00F50DA05F40
01F69FF37F30
4EFE4032BF30
010120000380
ENDCHAR
STARTCHAR n
ENCODING 110
SWIDTH 584 0
DWIDTH 9 0
BBX 10 11 0 -1
BITMAP
00A0000000
2BF13CE900
27F4719F60
02FB102F90
00EC000F90
00BB000F80
008A001F60
006C005F40
006E1CFF40
0AFFC03790
0101200012
ENDCHAR
STARTCHAR o
ENCODING 111
SWIDTH 503 0
DWIDTH 8 0
BBX 8 8 0 1
BITMAP
019EFB20
0CD32CE1
6F7004F7
9F5000FA
9F7000EA
6FB000E7
0CF617E1
019EEA20
ENDCHAR
STARTCHAR p
ENCODING 112
SWIDTH 509 0
DWIDTH 8 0
BBX 8 16 0 -7
BITMAP
03950000
7CF7BEB1
01FC15F9
00F600DD
00F400CC
01F500EA
01FA17F3
01FDED50
02F70000
02F70000
02F70000
03F80000
04F90000
07FD0000
6EFFB100
00025100
ENDCHAR
STARTCHAR q
ENCODING 113
SWIDTH 505 0
DWIDTH 8 0
BBX 9 16 0 -7
BITMAP
0000000100
07DEADC200
5F913F8000
AF200D8000
AF200E8000
7FA13F8000
09EE9F8000
00000F8000
00000F8000
00000F8000
00001F8000
00001F8000
00001F8000
00003F8000
002FFFD200
000025AE10
ENDCHAR
STARTCHAR r
ENCODING 114
SWIDTH 414 0
DWIDTH 7 0
BBX 8 11 0 0
BITMAP
00005ED3
02A292A8
9FF718E4
06FA0000
04F90000
02FA0000
01FB0000
00EE0000
00DF3000
02EFF700
5C621000
ENDCHAR
STARTCHAR s
ENCODING 115
SWIDTH 482 0
DWIDTH 8 0
BBX 9 13 -1 -2
BITMAP
0000000300
0002BEA900
000BA15A00
000D700700
0009D10300
0001CC1000
00002DD100
000203EC00
0027007F60
00B4001FA0
08E5002F90
121A31AF40
0001AED500
ENDCHAR
STARTCHAR t
ENCODING 116
SWIDTH 434 0
DWIDTH 7 0
BBX 7 13 0 0
BITMAP
00029000
00098000
017F5000
8FFFED00
02FE3000
05F80000
08F40000
0BF10000
0CF00000
0CF00990
09F305B0
04FB1470
006DE900
ENDCHAR
STARTCHAR u
ENCODING 117
SWIDTH 744 0
DWIDTH 12 0
BBX 12 9 0 0
BITMAP
000002EFF300
03960004F500
9DF90001F600
00CB0001F700
009E0002F900
007F2003CC00
004F70058FEC
000ED2252530
0004DE900000
ENDCHAR
STARTCHAR v
ENCODING 118
SWIDTH 600 0
DWIDTH 10 0
BBX 10 10 0 0
BITMAP
0029300000
5AFD000001
01EF20CEE5
008F700B20
001FC00800
0009F32500
0003F95100
0000BE8000
00004F6000
0000091000
ENDCHAR
STARTCHAR w
ENCODING 119
SWIDTH 745 0
DWIDTH 12 0
BBX 12 8 0 0
BITMAP
0003100016BC
04A9009204A1
CFFB02F90720
05FF17DF2900
00DF685FB800
007FF30BF400
001EC002B000
000740000000
ENDCHAR
STARTCHAR x
ENCODING 120
SWIDTH 548 0
DWIDTH 9 0
BBX 10 10 -1 0
BITMAP
00026C4000
1FFFF52100
005EF65EFB
0006FC4A20
0000CFD100
00003F9000
00005FE100
001785F910
02D852FFF4
00003C4000
ENDCHAR
STARTCHAR y
ENCODING 121
SWIDTH 659 0
DWIDTH 11 0
BBX 11 15 0 -7
BITMAP
0006A0000220
15CC21EEFF40
AFF5001BF900
0AF50006F700
06F80007F600
01FC0009F400
009F8148F300
0019EE65F000
00000006C000
000000089000
0000000B4000
007EB01D0000
015BD0970000
029128B00000
007EE8100000
ENDCHAR
STARTCHAR z
ENCODING 122
SWIDTH 460 0
DWIDTH 7 0
BBX 8 10 0 0
BITMAP
7C620000
8FDDFF40
94009C00
6002F500
000BC000
005F5000
01EC0005
0AF51395
4FFFFFF4
34100000
ENDCHAR
STARTCHAR braceleft
ENCODING 123
SWIDTH 460 0
DWIDTH 7 0
BBX 8 20 0 -5
BITMAP
0003DEA0
000C8000
001F5000
002F6000
001F9000
000ED000
000DF000
001FE000
01AF7000
7EB50000
03810000
004C1000
000E6000
000E9000
000FB000
001FB000
001FB000
001FC022
000DF361
0003CE80
ENDCHAR
STARTCHAR bar
ENCODING 124
SWIDTH 368 0
DWIDTH 6 0
BBX 2 17 2 -3
BITMAP
70
80
80
80
71
71
62
62
53
53
44
34
35
25
16
17
06
ENDCHAR
STARTCHAR braceright
ENCODING 125
SWIDTH 476 0
DWIDTH 8 0
BBX 8 17 0 -4
BITMAP
2BED5000
824FE100
000DF400
000BF500
0008F500
0003F500
00005972
00000790
00000F50
00000F80
00000CC0
000008F1
000005F3
000003F4
000004F1
00004C70
000CD500
ENDCHAR
STARTCHAR asciitilde
ENCODING 126
SWIDTH 733 0
DWIDTH 12 0
BBX 11 3 0 3
BITMAP
000000000080
02BFEA511960
171149DFD600
ENDCHAR
STARTCHAR nonbreakingspace
ENCODING 160
SWIDTH 270 0
DWIDTH 4 0
BBX 1 1 0 0
BITMAP
00
ENDCHAR
STARTCHAR exclamdown
ENCODING 161
SWIDTH 247 0
DWIDTH 4 0
BBX 4 17 0 -2
BITMAP
1DA0
1EA0
0000
0000
0530
0660
0680
07A0
08B0
09D0
0AE0
0CF0
0DF1
0FF2
1FF2
1FF1
0BB0
ENDCHAR
STARTCHAR cent
ENCODING 162
SWIDTH 799 0
DWIDTH 13 0
BBX 8 14 2 -4
BITMAP
00040000
00060000
002CED91
02ED11BA
0CD420CE
3F8061EA
5F606000
5F806000
2FD04305
07FA2757
005DFE70
00000720
00000260
00000060
ENDCHAR
STARTCHAR sterling
ENCODING 163
SWIDTH 799 0
DWIDTH 13 0
BBX 10 14 2 -2
BITMAP
0018DE9100
00CB21D800
05F302EC00
08F20CFB00
08F50AE400
06F9000000
27FF651000
329F900000
001FE10000
0009F40000
0005F50000
1BEEF30060
741AF83081
3EFB27DE80
ENDCHAR
STARTCHAR currency
ENCODING 164
SWIDTH 732 0
DWIDTH 12 0
BBX 10 12 1 0
BITMAP
0000004200
200001B000
879DFFC100
1E62128B00
7600000920
A100000820
A300001B00
5C4114C400
0AFFEA7900
0C500003A2
2C00000014
1200000000
ENDCHAR
STARTCHAR yen
ENCODING 165
SWIDTH 799 0
DWIDTH 13 0
BBX 13 17 0 -2
BITMAP
00002730000110
3EFFF900138C20
018FF802FFA100
0009FE100A0000
0001DF70250000
00005FE1700000
00000DFB700000
000006FF400000
000001FF200000
0008EEFFEEFC00
000012DFEF4000
000398FE200000
000000EE000000
000000EE000000
000002FF500000
00003CFFFC0000
0007D842100000
ENDCHAR
STARTCHAR brokenbar
ENCODING 166
SWIDTH 341 0
DWIDTH 5 0
BBX 2 18 2 -4
BITMAP
60
80
80
80
80
80
60
00
60
70
71
71
71
81
81
81
91
80
ENDCHAR
STARTCHAR section
ENCODING 167
SWIDTH 546 0
DWIDTH 9 0
BBX 8 18 0 -5
BITMAP
001AEE91
00C812E8
05F101ED
06F501E9
03FE4000
00CFF700
0967FFA0
1F302AF8
2F80008D
0DF8001D
03DFC246
0019FE80
00003DD1
000001C6
00000038
006E3027
009FC172
002CEC30
ENDCHAR
STARTCHAR dieresis
ENCODING 168
SWIDTH 393 0
DWIDTH 6 0
BBX 5 2 1 11
BITMAP
3E4E20
4E4E20
ENDCHAR
STARTCHAR copyright
ENCODING 169
SWIDTH 1023 0
DWIDTH 16 0
BBX 16 15 0 -2
BITMAP
000017CEFDA50000
0005D831026BD200
006B100000005E20
02C10000140006B0
084004CEE40000C3
0C003F6175000076
1A009D0005000058
2800BC0001100058
28009E1004200076
1A003FA2190000A3
0B1004CEC20002C0
0680000000000A50
00B600000001A900
001BB520138E7000
00004ADFEC820000
ENDCHAR
STARTCHAR ordfeminine
ENCODING 170
SWIDTH 558 0
DWIDTH 9 0
BBX 9 8 0 5
BITMAP
04CE900000
0D42E60000
2F509A0000
1E708C0000
02BEFD0000
0C917E0510
0E618F3810
07ED39E900
ENDCHAR
STARTCHAR guillemotleft
ENCODING 171
SWIDTH 608 0
DWIDTH 10 0
BBX 9 14 0 -4
BITMAP
0000000060
0000021270
00000A0640
0000670B10
0005D14B00
008F51D700
1CFB09F900
09FD11DF20
009F903F70
0009F309B0
0000BB02C0
00001E3090
000004A020
0000007000
ENDCHAR
STARTCHAR logicalnot
ENCODING 172
SWIDTH 616 0
DWIDTH 10 0
BBX 10 5 0 3
BITMAP
0000000100
2EEEDCCCE0
00000000C1
00000000B0
0000000040
ENDCHAR
STARTCHAR uni00AD
ENCODING 173
SWIDTH 436 0
DWIDTH 7 0
BBX 7 2 0 3
BITMAP
02101100
1AEFFC10
ENDCHAR
STARTCHAR registered
ENCODING 174
SWIDTH 1048 0
DWIDTH 17 0
BBX 16 15 0 -4
BITMAP
000017BEFDB61000
0005D8410137C500
006B200000001950
03C1BEFFFD500081
0A4009E12DE00017
0B0005D00AE00007
2A0005E16F800006
390005FFF6000006
2A0006F3F6005006
0D001BF5AE418007
0A53EDDEA8EE5026
03D1000020000091
007C200000001A40
0007E9410137D400
000027CEFEB71000
ENDCHAR
STARTCHAR macron
ENCODING 175
SWIDTH 382 0
DWIDTH 6 0
BBX 6 1 0 13
BITMAP
1BDEF3
ENDCHAR
STARTCHAR degree
ENCODING 176
SWIDTH 346 0
DWIDTH 6 0
BBX 5 4 0 11
BITMAP
07EC20
1A14A0
2B1490
08EC20
ENDCHAR
STARTCHAR plusminus
ENCODING 177
SWIDTH 580 0
DWIDTH 9 0
BBX 9 7 0 2
BITMAP
0000100000
0000730000
0000A30000
0BEDEDBB40
0000610000
0000400000
1EECBBA300
ENDCHAR
STARTCHAR twosuperior
ENCODING 178
SWIDTH 365 0
DWIDTH 6 0
BBX 6 9 0 5
BITMAP
01BE80
0518F3
0004F4
0007D1
003C30
286100
2C9243
00AF60
000600
ENDCHAR
STARTCHAR threesuperior
ENCODING 179
SWIDTH 371 0
DWIDTH 6 0
BBX 6 9 0 6
BITMAP
010100
3FFD00
145400
00C720
001AE2
4001F8
7000E8
6617F4
09ED60
ENDCHAR
STARTCHAR acute
ENCODING 180
SWIDTH 234 0
DWIDTH 4 0
BBX 3 3 0 12
BITMAP
02B0
0A50
1800
ENDCHAR
STARTCHAR mu
ENCODING 181
SWIDTH 634 0
DWIDTH 10 0
BBX 11 16 0 -7
BITMAP
010000000000
5F2000110000
5F1005F40000
5F2002F60000
4F4000E70000
4F9000F90700
4FD517DB0710
3F6BE93F3810
3F500007E900
2F7000000000
2F8000000000
1FA000000000
1FB000000000
0FD000000000
0EE000000000
010000000000
ENDCHAR
STARTCHAR paragraph
ENCODING 182
SWIDTH 707 0
DWIDTH 11 0
BBX 12 20 0 -6
BITMAP
000000000020
000000137A30
028BDEFFF200
4EFFF309B000
CFFFF1089000
EFFFF0098000
DFFFE0097000
5FFFE0097000
03BFE00A8000
0009E00A8000
0006F00B9000
0005F00BA000
0004F10BB000
0003F20BD000
0003F30BF100
0002F40BF810
0003F50AFEF3
0005F6010000
006EF6000000
0CA510000000
ENDCHAR
STARTCHAR periodcentered
ENCODING 183
SWIDTH 238 0
DWIDTH 4 0
BBX 3 3 0 4
BITMAP
0CB0
3FF0
1CA0
ENDCHAR
STARTCHAR cedilla
ENCODING 184
SWIDTH 332 0
DWIDTH 5 0
BBX 5 5 0 -4
BITMAP
005000
00B400
005F50
262E70
08EB10
ENDCHAR
STARTCHAR onesuperior
ENCODING 185
SWIDTH 336 0
DWIDTH 5 0
BBX 5 7 0 7
BITMAP
000800
01AD00
035D00
005D00
007D00
6AEF30
157AC0
ENDCHAR
STARTCHAR ordmasculine
ENCODING 186
SWIDTH 503 0
DWIDTH 8 0
BBX 8 7 0 5
BITMAP
02AEE910
1A215ED1
560003F6
780000B8
5D100096
0CC403D1
019EFB30
ENDCHAR
STARTCHAR guillemotright
ENCODING 187
SWIDTH 778 0
DWIDTH 12 0
BBX 12 16 0 -5
BITMAP
000001000000
000007000000
130007600000
0B1000B50000
06C2002D8000
009F9302DB30
0007FFD61EF6
00006FA1BFA1
0002E809F600
000C705F5000
007A00D80000
01C105D00000
055009600000
03000B100000
000008000000
000001000000
ENDCHAR
STARTCHAR onequarter
ENCODING 188
SWIDTH 876 0
DWIDTH 14 0
BBX 14 16 0 -1
BITMAP
00000000000600
00080000006400
01AD0000039000
035D00001B1000
005D0000940000
007D0005800000
6AEF302B006000
157AC1B205A000
000008500CB000
0000390047C000
0001B10054E030
0009300513F490
0056001DCEFFB0
0190000321FB10
081000002DFEFA
00000000141000
ENDCHAR
STARTCHAR onehalf
ENCODING 189
SWIDTH 762 0
DWIDTH 12 0
BBX 12 16 0 -1
BITMAP
000000000006
000800000064
01AD00000390
035D00001B10
005D00009400
007D00058000
6AEF302B0000
157AC1B29EA1
0000085424F6
0000390000F7
0001B10004F2
000930001C50
005600168200
01900019B334
081000007F90
000000000600
ENDCHAR
STARTCHAR threequarters
ENCODING 190
SWIDTH 922 0
DWIDTH 15 0
BBX 15 16 0 -1
BITMAP
0101000000006000
3FFD000000083000
1454000000480000
00C7200001B00000
001AE2000A200000
4001F80076000000
7000E803A0340000
6617F41B10960000
09ED609402E70000
0000057005A80000
00002A00238A0300
0000A200607C6700
00075003DCEFF700
00380001325F8100
0091000006EFEF60
0000000002300000
ENDCHAR
STARTCHAR questiondown
ENCODING 191
SWIDTH 571 0
DWIDTH 9 0
BBX 9 15 0 -3
BITMAP
0001DC0000
0005FF2000
0002DC0000
0000000000
0000710000
0000260000
0000830000
0008A00000
01BE18EB20
0CF60DFFA0
6FF105EFC0
8FF0001DB0
7FF3000A70
2EFC314C10
029DFE9200
ENDCHAR
STARTCHAR Agrave
ENCODING 192
SWIDTH 784 0
DWIDTH 13 0
BBX 13 19 0 -2
BITMAP
006B1000000000
001B9000000000
00009300000000
00000000000000
000038C0000000
003EEFF5000000
00001CFA000000
000054DE100000
0000808F500000
0000804FA00000
0005810FF10000
000ABEBFF60000
001B016DFB0000
00760004FF2000
02D10000DF7000
EFF400008FD000
037C00004FF810
000000006FFFB0
0000000A941000
ENDCHAR
STARTCHAR Aacute
ENCODING 193
SWIDTH 784 0
DWIDTH 13 0
BBX 13 19 0 -2
BITMAP
000000B2000000
00000690000000
00000910000000
00000000000000
000038C0000000
003EEFF5000000
00001CFA000000
000054DE100000
0000808F500000
0000804FA00000
0005810FF10000
000ABEBFF60000
001B016DFB0000
00760004FF2000
02D10000DF7000
EFF400008FD000
037C00004FF810
000000006FFFB0
0000000A941000
ENDCHAR
STARTCHAR Acircumflex
ENCODING 194
SWIDTH 784 0
DWIDTH 13 0
BBX 13 19 0 -2
BITMAP
00000790000000
000069CC300000
00054008E10000
00000000000000
000038C0000000
003EEFF5000000
00001CFA000000
000054DE100000
0000808F500000
0000804FA00000
0005810FF10000
000ABEBFF60000
001B016DFB0000
00760004FF2000
02D10000DF7000
EFF400008FD000
037C00004FF810
000000006FFFB0
0000000A941000
ENDCHAR
STARTCHAR Atilde
ENCODING 195
SWIDTH 784 0
DWIDTH 13 0
BBX 13 19 0 -2
BITMAP
0006E600000000
00054E63400000
000004DC100000
00000000000000
000038C0000000
003EEFF5000000
00001CFA000000
000054DE100000
0000808F500000
0000804FA00000
0005810FF10000
000ABEBFF60000
001B016DFB0000
00760004FF2000
02D10000DF7000
EFF400008FD000
037C00004FF810
000000006FFFB0
0000000A941000
ENDCHAR
STARTCHAR Adieresis
ENCODING 196
SWIDTH 784 0
DWIDTH 13 0
BBX 13 18 0 -2
BITMAP
0003E84E200000
0003E85E200000
00000000000000
000038C0000000
003EEFF5000000
00001CFA000000
000054DE100000
0000808F500000
0000804FA00000
0005810FF10000
000ABEBFF60000
001B016DFB0000
00760004FF2000
02D10000DF7000
EFF400008FD000
037C00004FF810
000000006FFFB0
0000000A941000
ENDCHAR
STARTCHAR Aring
ENCODING 197
SWIDTH 784 0
DWIDTH 13 0
BBX 13 20 0 -2
BITMAP
00003DD4000000
0000A22A000000
0000B229000000
00004ED3000000
00000000000000
000038C0000000
003EEFF5000000
00001CFA000000
000054DE100000
0000808F500000
0000804FA00000
0005810FF10000
000ABEBFF60000
001B016DFB0000
00760004FF2000
02D10000DF7000
EFF400008FD000
037C00004FF810
000000006FFFB0
0000000A941000
ENDCHAR
STARTCHAR AE
ENCODING 198
SWIDTH 1172 0
DWIDTH 19 0
BBX 19 17 0 -4
BITMAP
00000000000003890000
000000002369DFEB0000
000000CFFEFA40080000
0000000297F500040000
0000000054F700100000
0000000143F900700000
0000000401FC14D00000
0000000501FFFDE00000
0000005103FF20710330
000000DFFEFF30230540
0000068100DF60000850
00001A0000BF90001E80
0000840000AFD005DE80
0004B00000AFFC962000
027E700001EC50000000
DEDDEC00295000000000
00000000100000000000
ENDCHAR
STARTCHAR Ccedilla
ENCODING 199
SWIDTH 742 0
DWIDTH 12 0
BBX 12 20 0 -7
BITMAP
000000000060
000000000280
0006BEFECE80
02CF82027FA0
0CF6000004D0
5FD000000062
AF9000000000
DF7000000000
EF8000000000
DF9000000005
AFD000000007
5FF400000026
0BFD10000091
01CFD6113A50
0005BEFDA300
000000600000
000000D80000
0000002E6000
0000161E7000
000008EB1000
ENDCHAR
STARTCHAR Egrave
ENCODING 200
SWIDTH 557 0
DWIDTH 9 0
BBX 9 19 0 -2
BITMAP
08A0000000
01C7000000
001A100000
0000000000
554468BE00
2EFB210900
08F9000500
05FA000000
03FB000000
01FB050000
00EFEE0000
00CD190000
00AE060000
009F000000
007F100010
007F200060
007F4004B0
9FFFFCDFA0
0001245630
ENDCHAR
STARTCHAR Eacute
ENCODING 201
SWIDTH 557 0
DWIDTH 9 0
BBX 9 19 0 -2
BITMAP
0000094000
00005B0000
0000810000
0000000000
554468BE00
2EFB210900
08F9000500
05FA000000
03FB000000
01FB050000
00EFEE0000
00CD190000
00AE060000
009F000000
007F100010
007F200060
007F4004B0
9FFFFCDFA0
0001245630
ENDCHAR
STARTCHAR Ecircumflex
ENCODING 202
SWIDTH 557 0
DWIDTH 9 0
BBX 9 19 0 -2
BITMAP
0002C30000
001B8E7000
027104C800
0000000000
554468BE00
2EFB210900
08F9000500
05FA000000
03FB000000
01FB050000
00EFEE0000
00CD190000
00AE060000
009F000000
007F100010
007F200060
007F4004B0
9FFFFCDFA0
0001245630
ENDCHAR
STARTCHAR Edieresis
ENCODING 203
SWIDTH 557 0
DWIDTH 9 0
BBX 9 18 0 -2
BITMAP
00BD1D8000
00BD1D7000
0000000000
554468BE00
2EFB210900
08F9000500
05FA000000
03FB000000
01FB050000
00EFEE0000
00CD190000
00AE060000
009F000000
007F100010
007F200060
007F4004B0
9FFFFCDFA0
0001245630
ENDCHAR
STARTCHAR Igrave
ENCODING 204
SWIDTH 438 0
DWIDTH 7 0
BBX 9 20 -1 -3
BITMAP
007A000000
001C800000
0001A20000
0000000000
3CBAABDEC0
027FFE5100
000DF90000
000BF50000
000BF30000
000BF10000
000BE00000
000BD00000
000BB00000
000BA00000
000B900000
000B800000
000C800000
000EB10000
02BFFF8000
7B62100000
ENDCHAR
STARTCHAR Iacute
ENCODING 205
SWIDTH 438 0
DWIDTH 7 0
BBX 9 20 -1 -3
BITMAP
000001C100
0000088000
0000090000
0000000000
3CBAABDEC0
027FFE5100
000DF90000
000BF50000
000BF30000
000BF10000
000BE00000
000BD00000
000BB00000
000BA00000
000B900000
000B800000
000C800000
000EB10000
02BFFF8000
7B62100000
ENDCHAR
STARTCHAR Icircumflex
ENCODING 206
SWIDTH 438 0
DWIDTH 7 0
BBX 9 21 -1 -3
BITMAP
0000880000
00079CB300
0064018E00
0000000000
0000000000
3CBAABDEC0
027FFE5100
000DF90000
000BF50000
000BF30000
000BF10000
000BE00000
000BD00000
000BB00000
000BA00000
000B900000
000B800000
000C800000
000EB10000
02BFFF8000
7B62100000
ENDCHAR
STARTCHAR Idieresis
ENCODING 207
SWIDTH 438 0
DWIDTH 7 0
BBX 9 19 -1 -3
BITMAP
006E58D000
007E48C000
0000000000
3CBAABDEC0
027FFE5100
000DF90000
000BF50000
000BF30000
000BF10000
000BE00000
000BD00000
000BB00000
000BA00000
000B900000
000B800000
000C800000
000EB10000
02BFFF8000
7B62100000
ENDCHAR
STARTCHAR Eth
ENCODING 208
SWIDTH 730 0
DWIDTH 12 0
BBX 12 13 0 -4
BITMAP
2AAACEFDA300
15BF503CFF70
007F4000CFF3
006F40004FF9
007F52001FFC
6BEFE7000FFC
228F40001FFA
008F50005FF4
009F6001CF90
00BF904CE700
01EFFDA61000
1B8410000000
610000000000
ENDCHAR
STARTCHAR Ntilde
ENCODING 209
SWIDTH 799 0
DWIDTH 13 0
BBX 13 20 0 -4
BITMAP
000005E7000000
0000054E724000
00000003DD1000
00120000000230
EFFF6000EEFE80
02EFF50006E100
00BBFE3000B000
00A1CFE2009000
00902EFC108000
008005FFB18000
0080009FFC8000
0080000CFF8000
00800002EF7000
008000003F7000
00800000055000
00900000000000
00B10000000000
04F50000000000
BEFF8000000000
00037000000000
ENDCHAR
STARTCHAR Ograve
ENCODING 210
SWIDTH 747 0
DWIDTH 12 0
BBX 12 17 0 0
BITMAP
001D30000000
0007D1000000
000067000000
000000000000
000000000000
0018DFEB6000
03EA203BFC20
1EC00000AFC0
7F6000002FF5
CF3000000BFA
DF10000008FC
DF20000007FC
BF50000007FA
7FA000000AF5
1EF400002FC0
03EE7204DD20
0018CEEC7100
ENDCHAR
STARTCHAR Oacute
ENCODING 211
SWIDTH 747 0
DWIDTH 12 0
BBX 12 16 0 0
BITMAP
000000B20000
000006900000
000009100000
000000000000
0018DFEB6000
03EA203BFC20
1EC00000AFC0
7F6000002FF5
CF3000000BFA
DF10000008FC
DF20000007FC
BF50000007FA
7FA000000AF5
1EF400002FC0
03EE7204DD20
0018CEEC7100
ENDCHAR
STARTCHAR Ocircumflex
ENCODING 212
SWIDTH 747 0
DWIDTH 12 0
BBX 12 16 0 0
BITMAP
00001C300000
0001A8E71000
0027103B8000
000000000000
0018DFEB6000
03EA203BFC20
1EC00000AFC0
7F6000002FF5
CF3000000BFA
DF10000008FC
DF20000007FC
BF50000007FA
7FA000000AF5
1EF400002FC0
03EE7204DD20
0018CEEC7100
ENDCHAR
STARTCHAR Otilde
ENCODING 213
SWIDTH 747 0
DWIDTH 12 0
BBX 12 16 0 0
BITMAP
0003DA000000
00052DA16000
000002BE3000
000000000000
0018DFEB6000
03EA203BFC20
1EC00000AFC0
7F6000002FF5
CF3000000BFA
DF10000008FC
DF20000007FC
BF50000007FA
7FA000000AF5
1EF400002FC0
03EE7204DD20
0018CEEC7100
ENDCHAR
STARTCHAR Odieresis
ENCODING 214
SWIDTH 747 0
DWIDTH 12 0
BBX 12 16 0 0
BITMAP
0005E66E1000
0005E67D0000
000000000000
000000000000
0018DFEB6000
03EA203BFC20
1EC00000AFC0
7F6000002FF5
CF3000000BFA
DF10000008FC
DF20000007FC
BF50000007FA
7FA000000AF5
1EF400002FC0
03EE7204DD20
0018CEEC7100
ENDCHAR
STARTCHAR multiply
ENCODING 215
SWIDTH 541 0
DWIDTH 9 0
BBX 8 10 0 0
BITMAP
00000003
00000067
03100390
01A21900
001BB100
0008A700
00480490
01A00000
0A300000
16000000
ENDCHAR
STARTCHAR Oslash
ENCODING 216
SWIDTH 747 0
DWIDTH 12 0
BBX 12 16 0 -2
BITMAP
000000000024
000000000090
0018DFDB6840
03EA203AFE10
1EC00000DFC0
7F6000077FF5
CF3000490BFA
DF1002A008FC
DF201B1007FC
BF50930007FA
7FA660000AF5
1EF900002FC0
03EF7104DD20
0488CEEC7100
190000000000
110000000000
ENDCHAR
STARTCHAR Ugrave
ENCODING 217
SWIDTH 690 0
DWIDTH 11 0
BBX 12 16 0 1
BITMAP
000099000000
00002D600000
000001B10000
000000000000
000003600000
1359DE500000
EFFFE2000000
07FF80AECCCA
01FF50029E10
00FF40000C00
00EF40000900
00DF50000800
00BF70000800
006FC0003600
000CF813B100
00019DEB2000
ENDCHAR
STARTCHAR Uacute
ENCODING 218
SWIDTH 690 0
DWIDTH 11 0
BBX 12 14 0 1
BITMAP
000000000A30
000000005A00
000003609100
1359DE500000
EFFFE2000000
07FF80AECCCA
01FF50029E10
00FF40000C00
00EF40000900
00DF50000800
00BF70000800
006FC0003600
000CF813B100
00019DEB2000
ENDCHAR
STARTCHAR Ucircumflex
ENCODING 219
SWIDTH 690 0
DWIDTH 11 0
BBX 12 15 0 1
BITMAP
000000B50000
0000098E9100
00017202AB00
000003600000
1359DE500000
EFFFE2000000
07FF80AECCCA
01FF50029E10
00FF40000C00
00EF40000900
00DF50000800
00BF70000800
006FC0003600
000CF813B100
00019DEB2000
ENDCHAR
STARTCHAR Udieresis
ENCODING 220
SWIDTH 690 0
DWIDTH 11 0
BBX 12 15 0 1
BITMAP
00006E57D000
00006E48C000
000000000000
000003600000
1359DE500000
EFFFE2000000
07FF80AECCCA
01FF50029E10
00FF40000C00
00EF40000900
00DF50000800
00BF70000800
006FC0003600
000CF813B100
00019DEB2000
ENDCHAR
STARTCHAR Yacute
ENCODING 221
SWIDTH 796 0
DWIDTH 13 0
BBX 15 19 0 -2
BITMAP
000000000B200000
000000006A000000
0000000091000000
0024880000000000
BFFF810002731000
04DF700001AFFF20
002DF50000860000
0002EF5008600000
00004FF798000000
000007FFB0000000
000000DF30000000
0000009F00000000
0000008F10000000
0000009F10000000
000000BF20000000
000000DF30000000
000005FF60000000
0002EFFFD3000000
0000001377000000
ENDCHAR
STARTCHAR Thorn
ENCODING 222
SWIDTH 479 0
DWIDTH 8 0
BBX 8 17 0 -2
BITMAP
6FFFD000
06F90000
00F60000
00FFFD80
01F51AF9
01F102FE
01F201FE
02F319F9
02FDEE91
03F30000
03F30000
04F30000
05F30000
06F40000
0BF70000
6FFF7000
11023000
ENDCHAR
STARTCHAR germandbls
ENCODING 223
SWIDTH 591 0
DWIDTH 9 0
BBX 11 18 -1 -3
BITMAP
009ED6000000
07816F300000
0C100D700000
0D000B800000
0D100C500000
0C301B000000
0B6041000000
0998FEC71000
07D026EFC100
04F2001DF900
01F60003FF10
00EA0000AF30
00BE10005F20
008F50003F00
007FA9D27900
01DC76EE9100
293000000000
100000000000
ENDCHAR
STARTCHAR agrave
ENCODING 224
SWIDTH 527 0
DWIDTH 8 0
BBX 9 15 0 -1
BITMAP
6B10000000
1B90000000
0093000000
0000000000
03CEB20000
0B31CC0000
0E706F3000
08E33F7000
00002FA000
06DFEFC000
6F511EE000
AC000CF200
9E315BF520
2BEC45F970
000000BE80
ENDCHAR
STARTCHAR aacute
ENCODING 225
SWIDTH 527 0
DWIDTH 8 0
BBX 9 15 0 -1
BITMAP
0000490000
0000D20000
0005500000
0000000000
03CEB20000
0B31CC0000
0E706F3000
08E33F7000
00002FA000
06DFEFC000
6F511EE000
AC000CF200
9E315BF520
2BEC45F970
000000BE80
ENDCHAR
STARTCHAR acircumflex
ENCODING 226
SWIDTH 527 0
DWIDTH 8 0
BBX 9 15 0 -1
BITMAP
000A600000
0088DA2000
063019C000
0000000000
03CEB20000
0B31CC0000
0E706F3000
08E33F7000
00002FA000
06DFEFC000
6F511EE000
AC000CF200
9E315BF520
2BEC45F970
000000BE80
ENDCHAR
STARTCHAR atilde
ENCODING 227
SWIDTH 527 0
DWIDTH 8 0
BBX 9 14 0 -1
BITMAP
01CC100000
042AC26000
00009E6000
03CEB20000
0B31CC0000
0E706F3000
08E33F7000
00002FA000
06DFEFC000
6F511EE000
AC000CF200
9E315BF520
2BEC45F970
000000BE80
ENDCHAR
STARTCHAR adieresis
ENCODING 228
SWIDTH 527 0
DWIDTH 8 0
BBX 9 14 0 -1
BITMAP
03E4E20000
04E4E20000
0000000000
03CEB20000
0B31CC0000
0E706F3000
08E33F7000
00002FA000
06DFEFC000
6F511EE000
AC000CF200
9E315BF520
2BEC45F970
000000BE80
ENDCHAR
STARTCHAR aring
ENCODING 229
SWIDTH 527 0
DWIDTH 8 0
BBX 9 16 0 -1
BITMAP
004ED30000
00B2390000
00B1290000
005ED20000
0000000000
03CEB20000
0B31CC0000
0E706F3000
08E33F7000
00002FA000
06DFEFC000
6F511EE000
AC000CF200
9E315BF520
2BEC45F970
000000BE80
ENDCHAR
STARTCHAR ae
ENCODING 230
SWIDTH 700 0
DWIDTH 11 0
BBX 11 11 0 -1
BITMAP
0000007DE900
0AE907615F50
5A1B69000E70
4E25F5003F50
0005F315DC00
01AFFEFD8100
1D73F6000060
8B00FC000090
B801EFB315C0
9B174FFFFF70
2CE604CFE800
ENDCHAR
STARTCHAR ccedilla
ENCODING 231
SWIDTH 437 0
DWIDTH 7 0
BBX 7 14 0 -4
BITMAP
008DEA00
0A61EF50
4C00AE20
99000000
B9000440
AB000090
7F100090
1EC21750
02BFD700
00060000
000BD200
0000C900
0071C900
005EC200
ENDCHAR
STARTCHAR egrave
ENCODING 232
SWIDTH 434 0
DWIDTH 7 0
BBX 7 13 0 1
BITMAP
0C500000
04E30000
00390000
00000000
007DEA10
0AD22E80
4F500CA0
9F216F50
AFEFD600
AF300060
7F800080
1DF50570
02AEE900
ENDCHAR
STARTCHAR eacute
ENCODING 233
SWIDTH 434 0
DWIDTH 7 0
BBX 7 13 0 1
BITMAP
00005800
0001D200
00064000
00000000
007DEA10
0AD22E80
4F500CA0
9F216F50
AFEFD600
AF300060
7F800080
1DF50570
02AEE900
ENDCHAR
STARTCHAR ecircumflex
ENCODING 234
SWIDTH 434 0
DWIDTH 7 0
BBX 7 13 0 1
BITMAP
000B5000
0098E910
17202AB0
00000000
007DEA10
0AD22E80
4F500CA0
9F216F50
AFEFD600
AF300060
7F800080
1DF50570
02AEE900
ENDCHAR
STARTCHAR edieresis
ENCODING 235
SWIDTH 434 0
DWIDTH 7 0
BBX 7 12 0 1
BITMAP
00B99800
00C8A800
00000000
007DEA10
0AD22E80
4F500CA0
9F216F50
AFEFD600
AF300060
7F800080
1DF50570
02AEE900
ENDCHAR
STARTCHAR igrave
ENCODING 236
SWIDTH 301 0
DWIDTH 5 0
BBX 6 13 -1 1
BITMAP
8A0000
1C8000
01A200
000000
002680
0AFF80
009F60
006F50
006F30
006F20
006F10
009F40
09EEF7
ENDCHAR
STARTCHAR iacute
ENCODING 237
SWIDTH 301 0
DWIDTH 5 0
BBX 5 13 0 1
BITMAP
001C00
009600
019000
000000
026800
AFF800
09F600
06F500
06F300
06F200
06F100
09F400
9EEF70
ENDCHAR
STARTCHAR icircumflex
ENCODING 238
SWIDTH 301 0
DWIDTH 5 0
BBX 7 13 -1 1
BITMAP
003C2000
02B9E600
36005C60
00000000
00268000
0AFF8000
009F6000
006F5000
006F3000
006F2000
006F1000
009F4000
09EEF700
ENDCHAR
STARTCHAR idieresis
ENCODING 239
SWIDTH 301 0
DWIDTH 5 0
BBX 5 13 0 1
BITMAP
2E5D40
3E4E30
000000
000000
026800
AFF800
09F600
06F500
06F300
06F200
06F100
09F400
9EEF70
ENDCHAR
STARTCHAR eth
ENCODING 240
SWIDTH 476 0
DWIDTH 8 0
BBX 10 15 -2 -2
BITMAP
0000001100
0000006000
019DFC7000
294119E600
0000425F20
0000300D90
00000009D0
00000007F1
0001AEDCF3
000BD22CF4
001F7003F5
002F8000E4
000FC000E1
0008F815A0
00007DEB10
ENDCHAR
STARTCHAR ntilde
ENCODING 241
SWIDTH 584 0
DWIDTH 9 0
BBX 10 14 0 -1
BITMAP
0002DA0000
00052DA160
000001BE40
00A0000000
2BF13CE900
27F4719F60
02FB102F90
00EC000F90
00BB000F80
008A001F60
006C005F40
006E1CFF40
0AFFC03790
0101200012
ENDCHAR
STARTCHAR ograve
ENCODING 242
SWIDTH 400 0
DWIDTH 6 0
BBX 11 13 0 3
BITMAP
000000004E60
000000003EA0
000000000490
5C1000000450
0AB000000800
008400007300
0000015B5000
07E7FD920000
5F60D7000000
BE00AF100000
BC00BF200000
7F33ED000000
08EEA2000000
ENDCHAR
STARTCHAR oacute
ENCODING 243
SWIDTH 400 0
DWIDTH 6 0
BBX 11 13 0 3
BITMAP
000000004E60
000000003EA0
000000000490
000067000450
0001D1000800
000640007300
0000015B5000
07E7FD920000
5F60D7000000
BE00AF100000
BC00BF200000
7F33ED000000
08EEA2000000
ENDCHAR
STARTCHAR ocircumflex
ENCODING 244
SWIDTH 400 0
DWIDTH 6 0
BBX 11 13 0 3
BITMAP
000000004E60
000000003EA0
000000000490
001C30000450
01A8E7100800
27103B807300
0000015B5000
07E7FD920000
5F60D7000000
BE00AF100000
BC00BF200000
7F33ED000000
08EEA2000000
ENDCHAR
STARTCHAR otilde
ENCODING 245
SWIDTH 400 0
DWIDTH 6 0
BBX 11 13 0 3
BITMAP
000000004E60
000000003EA0
000000000490
01CB10000450
042BC2600800
0001AE507300
0000015B5000
07E7FD920000
5F60D7000000
BE00AF100000
BC00BF200000
7F33ED000000
08EEA2000000
ENDCHAR
STARTCHAR odieresis
ENCODING 246
SWIDTH 400 0
DWIDTH 6 0
BBX 11 13 0 3
BITMAP
000000004E60
000000003EA0
000000000490
000000000450
01D6C5000800
01E5D5007300
0000015B5000
07E7FD920000
5F60D7000000
BE00AF100000
BC00BF200000
7F33ED000000
08EEA2000000
ENDCHAR
STARTCHAR divide
ENCODING 247
SWIDTH 592 0
DWIDTH 9 0
BBX 9 7 0 1
BITMAP
0004E20000
0005E20000
0000000100
2EEEDDDD80
0000000000
0004E30000
0004E30000
ENDCHAR
STARTCHAR oslash
ENCODING 248
SWIDTH 396 0
DWIDTH 6 0
BBX 6 11 0 0
BITMAP
000110
000710
07DFB2
5E3ADB
BA359F
BA91AE
7E93E9
0AFE91
064000
090000
020000
ENDCHAR
STARTCHAR ugrave
ENCODING 249
SWIDTH 744 0
DWIDTH 12 0
BBX 12 13 0 0
BITMAP
0008A0000000
0001C8000000
00001A200000
000000000000
000002EFF300
03960004F500
9DF90001F600
00CB0001F700
009E0002F900
007F2003CC00
004F70058FEC
000ED2252530
0004DE900000
ENDCHAR
STARTCHAR uacute
ENCODING 250
SWIDTH 744 0
DWIDTH 12 0
BBX 12 13 0 0
BITMAP
000001B10000
000007800000
000009000000
000000000000
000002EFF300
03960004F500
9DF90001F600
00CB0001F700
009E0002F900
007F2003CC00
004F70058FEC
000ED2252530
0004DE900000
ENDCHAR
STARTCHAR ucircumflex
ENCODING 251
SWIDTH 744 0
DWIDTH 12 0
BBX 12 13 0 0
BITMAP
00007A000000
00059CC30000
0055007E2000
000000000000
000002EFF300
03960004F500
9DF90001F600
00CB0001F700
009E0002F900
007F2003CC00
004F70058FEC
000ED2252530
0004DE900000
ENDCHAR
STARTCHAR udieresis
ENCODING 252
SWIDTH 744 0
DWIDTH 12 0
BBX 12 12 0 0
BITMAP
0000D7B60000
0001D6C60000
000000000000
000002EFF300
03960004F500
9DF90001F600
00CB0001F700
009E0002F900
007F2003CC00
004F70058FEC
000ED2252530
0004DE900000
ENDCHAR
STARTCHAR yacute
ENCODING 253
SWIDTH 659 0
DWIDTH 11 0
BBX 11 18 0 -7
BITMAP
0000002B0000
000000A60000
000001800000
0006A0000220
15CC21EEFF40
AFF5001BF900
0AF50006F700
06F80007F600
01FC0009F400
009F8148F300
0019EE65F000
00000006C000
000000089000
0000000B4000
007EB01D0000
015BD0970000
029128B00000
007EE8100000
ENDCHAR
STARTCHAR thorn
ENCODING 254
SWIDTH 514 0
DWIDTH 8 0
BBX 9 24 -1 -11
BITMAP
003B000000
BFF6000000
05F1000000
03F2000000
01F3000000
00F4000000
00E9DFB200
00DB15EE10
00D8009F80
00C8005FC0
00C9004FD0
00CB006FC0
00BF32CF70
00BD8EE900
00BE000000
00BE000000
00BF000000
00BF100000
00BF200000
00BF300000
00CF400000
02EF500000
3FFFB20000
00026C5000
ENDCHAR
STARTCHAR ydieresis
ENCODING 255
SWIDTH 659 0
DWIDTH 11 0
BBX 11 19 0 -7
BITMAP
00005E4E1000
00006E4D1000
000000000000
000000000000
0006A0000220
15CC21EEFF40
AFF5001BF900
0AF50006F700
06F80007F600
01FC0009F400
009F8148F300
0019EE65F000
00000006C000
000000089000
0000000B4000
007EB01D0000
015BD0970000
029128B00000
007EE8100000
ENDCHAR
STARTCHAR dotlessi
ENCODING 305
SWIDTH 301 0
DWIDTH 5 0
BBX 5 9 0 1
BITMAP
026800
AFF800
09F600
06F500
06F300
06F200
06F100
09F400
9EEF70
ENDCHAR
STARTCHAR OE
ENCODING 338
SWIDTH 1132 0
DWIDTH 18 0
BBX 19 17 0 -3
BITMAP
00000000000000010000
000000000000027E3000
0017CEEB46FFFEBD3000
02DD4027E9CF40025000
1DE100004FFF00000000
6F80000008FF10000000
BF50000001FF20040000
DF50000000DF42760000
DF70000000BFFBD50000
AFC0000000BF60260000
6FF4000000DF60020000
0CFD200005FF70000000
02CFD5116AAF80000310
0007CEEC609F90000A00
00000000009FB0149F00
0000000003EFFFFFFF00
000000006B8420001100
ENDCHAR
STARTCHAR oe
ENCODING 339
SWIDTH 798 0
DWIDTH 13 0
BBX 13 7 0 2
BITMAP
04DEC402BEC300
3E32AF5D818900
9D000DFF11B800
BE0007FFEEA350
8F5005FF200070
2EE41AAFC31740
03BFE709EFD600
ENDCHAR
STARTCHAR circumflex
ENCODING 710
SWIDTH 483 0
DWIDTH 8 0
BBX 6 3 1 11
BITMAP
00A700
088DA2
63019C
ENDCHAR
STARTCHAR caron
ENCODING 711
SWIDTH 428 0
DWIDTH 7 0
BBX 6 5 0 11
BITMAP
000001
160026
069280
00AE10
003700
ENDCHAR
STARTCHAR ring
ENCODING 730
SWIDTH 330 0
DWIDTH 5 0
BBX 5 4 0 13
BITMAP
07EB10
2B1660
2A1560
09EB00
ENDCHAR
STARTCHAR tilde
ENCODING 732
SWIDTH 433 0
DWIDTH 7 0
BBX 7 3 0 12
BITMAP
09D30000
147E4510
0007EA00
ENDCHAR
STARTCHAR mu.dup1
ENCODING 956
SWIDTH 634 0
DWIDTH 10 0
BBX 11 16 0 -7
BITMAP
010000000000
5F2000110000
5F1005F40000
5F2002F60000
4F4000E70000
4F9000F90700
4FD517DB0710
3F6BE93F3810
3F500007E900
2F7000000000
2F8000000000
1FA000000000
1FB000000000
0FD000000000
0EE000000000
010000000000
ENDCHAR
STARTCHAR endash
ENCODING 8211
SWIDTH 436 0
DWIDTH 7 0
BBX 7 2 0 3
BITMAP
02101100
1AEFFC10
ENDCHAR
STARTCHAR emdash
ENCODING 8212
SWIDTH 651 0
DWIDTH 10 0
BBX 10 2 0 3
BITMAP
01468ACEF7
1765432110
ENDCHAR
STARTCHAR quoteleft
ENCODING 8216
SWIDTH 287 0
DWIDTH 5 0
BBX 4 5 0 8
BITMAP
0073
0990
1FE1
2FF6
0BE3
ENDCHAR
STARTCHAR quoteright
ENCODING 8217
SWIDTH 291 0
DWIDTH 5 0
BBX 4 6 0 7
BITMAP
1CD3
2FFB
0AFD
009B
0066
0280
ENDCHAR
STARTCHAR quotesinglbase
ENCODING 8218
SWIDTH 272 0
DWIDTH 4 0
BBX 4 5 0 -2
BITMAP
0CE4
1EF8
03D6
00A1
0340
ENDCHAR
STARTCHAR quotedblleft
ENCODING 8220
SWIDTH 445 0
DWIDTH 7 0
BBX 7 6 0 7
BITMAP
00370000
02B01700
0B80A500
1FD0EE20
2FF59E30
0BE30000
ENDCHAR
STARTCHAR quotedblright
ENCODING 8221
SWIDTH 444 0
DWIDTH 7 0
BBX 7 5 0 8
BITMAP
1DD2CD10
1EF7FF40
03F47F10
00B05700
05445000
ENDCHAR
STARTCHAR quotedblbase
ENCODING 8222
SWIDTH 482 0
DWIDTH 8 0
BBX 7 7 0 -5
BITMAP
0BE40000
2FFB5E80
0BFB9FE0
00B93FC0
00740A70
00800B10
00006300
ENDCHAR
STARTCHAR bullet
ENCODING 8226
SWIDTH 351 0
DWIDTH 6 0
BBX 5 4 0 5
BITMAP
07ED30
1FFFB0
2FFFB0
08ED30
ENDCHAR
STARTCHAR guilsinglleft
ENCODING 8249
SWIDTH 465 0
DWIDTH 7 0
BBX 7 11 0 -2
BITMAP
00000300
00005300
0002A000
002D3000
03DA0000
1DFB0000
01AF6000
0007E200
00006C00
00000660
00000010
ENDCHAR
STARTCHAR guilsinglright
ENCODING 8250
SWIDTH 449 0
DWIDTH 7 0
BBX 7 11 0 -2
BITMAP
03000000
06600000
00C40000
004F6000
000BFC20
001EE600
009E3000
02E30000
09600000
0B000000
12000000
ENDCHAR
STARTCHAR fraction
ENCODING 8260
SWIDTH 406 0
DWIDTH 7 0
BBX 12 15 -3 0
BITMAP
000000000033
0000000001A0
000000000920
000000006600
00000002A000
0000000B1000
000000840000
000004900000
00001B000000
0000A2000000
000660000000
002900000000
00A100000000
083000000000
270000000000
ENDCHAR
STARTCHAR foursuperior
ENCODING 8308
SWIDTH 473 0
DWIDTH 8 0
BBX 8 10 0 5
BITMAP
00051000
000C3000
005F4000
005D5000
041B7120
050AA840
6CDFFF40
2228F500
008FFEF3
00320000
ENDCHAR
STARTCHAR Euro
ENCODING 8364
SWIDTH 799 0
DWIDTH 13 0
BBX 14 14 0 -1
BITMAP
00000000000014
000005BEFC6191
0000AFB303BFA0
0009FB00001E50
003FF200000920
009FB004100500
00DFB772000000
49FF7373000000
13FFC610000000
CAEF7000004100
009FA000006000
003FF200007000
0006FD40293000
00004BEEB30000
ENDCHAR
STARTCHAR minus
ENCODING 8722
SWIDTH 436 0
DWIDTH 7 0
BBX 7 2 0 3
BITMAP
02101100
1AEFFC10
ENDCHAR
STARTCHAR f_f
ENCODING 64256
SWIDTH 467 0
DWIDTH 7 0
BBX 10 24 0 -5
BITMAP
0005DD3000
00259F9000
00805E5000
009003DEA0
02901C27F5
0480863EF5
0670C24EC1
0770E00000
0871E00000
0882F12000
08B9FEB200
3EC6F20000
18A0E40000
07C0C70000
07E0AB0000
06F17E1000
04F33F6000
03F60FD100
01F90DFE40
00FC4D6100
00DE300000
00CF400000
03EFD10000
7EDEFE4000
ENDCHAR
STARTCHAR .notdef
ENCODING -1
SWIDTH 270 0
DWIDTH 4 0
BBX 4 10 0 0
BITMAP
6FFB
1001
1001
1001
1001
1001
1001
1001
1001
6FFB
ENDCHAR
STARTCHAR .null
ENCODING -1
SWIDTH 0 0
DWIDTH 0 0
BBX 1 1 0 0
BITMAP
00
ENDCHAR
STARTCHAR nonmarkingreturn
ENCODING -1
SWIDTH 270 0
DWIDTH 4 0
BBX 1 1 0 0
BITMAP
00
ENDCHAR
STARTCHAR dieresis.case
ENCODING -1
SWIDTH 393 0
DWIDTH 6 0
BBX 6 2 0 12
BITMAP
1DB2E5
1DA2E4
ENDCHAR
STARTCHAR o.cmp
ENCODING -1
SWIDTH 400 0
DWIDTH 6 0
BBX 11 13 0 3
BITMAP
000000004E60
000000003EA0
000000000490
000000000450
000000000800
000000007300
0000015B5000
07E7FD920000
5F60D7000000
BE00AF100000
BC00BF200000
7F33ED000000
08EEA2000000
ENDCHAR
STARTCHAR n_n
ENCODING -1
SWIDTH 1024 0
DWIDTH 16 0
BBX 17 11 0 -1
BITMAP
15B000000000000000
CEF12CE90000000000
05F4619F5DF7000000
02FA102F92F79EB100
00DC000F91FC34F900
00BB000F81F900EC00
008A000F72F700EC00
006C001F53F801FA00
006E105F4CFC56F700
0AFFBCFF7410BFFC00
01012003B300002620
ENDCHAR
STARTCHAR a_a
ENCODING -1
SWIDTH 911 0
DWIDTH 15 0
BBX 16 11 0 0
BITMAP
00000001AED50000
0000000AA16F4000
0000000ED00CA000
09ED300AD00AC000
6B17D0000009D000
5E10F12AEEBCE000
0000E2CDF43DE000
07DFF4F8760CF000
7F71E6DC444DF100
AF23BD5CFC4AF542
4DE81AED3002CEA0
ENDCHAR
STARTCHAR t_h
ENCODING -1
SWIDTH 854 0
DWIDTH 14 0
BBX 15 21 -1 -4
BITMAP
00000138B0000000
00007FFFB0000000
0000001DA0000000
0000000B90000000
0000180B80000000
0016D70C70000000
2CFFFFFFF8000000
020BE10E60000000
000CC00F50000000
000DB01F58EEA100
000EA02FC514FB00
000EB03F84E4AF20
000DC04F43F78F40
0008F25F20C47F40
0002EDAF36B08F20
00002AEFE910AF00
000004DF9100CC00
00008FFFFD01FA00
00000000001AF900
0000000003FFFD10
0000000000002980
ENDCHAR
STARTCHAR s_s
ENCODING -1
SWIDTH 654 0
DWIDTH 10 0
BBX 12 14 -1 -2
BITMAP
000000030060
0004DDC9EEB0
000C81CF43A0
000C606F0060
0005D11F4000
00009C19C000
00000BC2E900
012001E88F40
0540AC8E1FB0
0A82F78E0DF1
258873E80CF3
0008FD801EF1
00008412AF80
000019DEC600
ENDCHAR
STARTCHAR t_t
ENCODING -1
SWIDTH 569 0
DWIDTH 9 0
BBX 10 14 0 -1
BITMAP
00005F1000
00068F1510
00399FC200
06EEFD1000
CFFDE90000
07F4C80000
07F2C80000
08F1BA0000
09F19D0CB0
08F13F82B1
06F305DE80
01F8009D10
007E42EE00
0006CFD500
ENDCHAR
STARTCHAR e_e
ENCODING -1
SWIDTH 782 0
DWIDTH 13 0
BBX 13 9 0 0
BITMAP
04CEA02AED4000
3F61C4DB14E000
BD00B9F200D100
EC28AAF000E000
CFD809F1059000
8F4006F52C2610
1CE721DEC30440
017CEECFA21A10
00000004CFD500
ENDCHAR
STARTCHAR o_o
ENCODING -1
SWIDTH 751 0
DWIDTH 12 0
BBX 17 14 0 1
BITMAP
000000000000009D10
000000000000008F50
000000000000000A30
000000000000000900
000000000000002700
00000000000002A100
02AEE70000038C2000
1DD31AAD5CFC710000
6F4004F603D2000000
AE0008F300E9000000
BD0009F300FA000000
9E0007F318F5000000
2E814EBDFD60000000
03BEE8000000000000
ENDCHAR
STARTCHAR l_l
ENCODING -1
SWIDTH 573 0
DWIDTH 9 0
BBX 11 16 -1 -3
BITMAP
002B015B3000
05DD4FFF3000
59ED00DF3000
00CD00BF3000
00CD00AF3000
00BD009F3000
00BE008F3000
00BE007F4000
00BF007F5000
00BF006F7000
00CF006F9000
00CF106FD200
00EF24CEEF20
BEFF51000000
0259C2000000
000013000000
ENDCHAR
STARTCHAR z_z
ENCODING -1
SWIDTH 875 0
DWIDTH 14 0
BBX 16 11 -1 -1
BITMAP
00000DFFFF900000
000000004F300000
00EFFFF68C000000
00408FB1E5000000
0001DE18E0000000
0008F52F90050000
003FA09F30390000
00CE10EFFFFA0CD0
06F5000000000CF2
2EFCEFDB84201AB0
00000247ACEFD810
ENDCHAR
STARTCHAR j_j
ENCODING -1
SWIDTH 577 0
DWIDTH 9 0
BBX 11 21 -2 -10
BITMAP
0000005E7000
00006E7F7000
00007E237100
001002EFF700
003CFFE9FC00
00009FF3DF10
00000DF48F40
000008F63F70
000004F70E90
000001F80BB0
000000E809C0
000000E807D0
000000D705D0
1BE600E504E0
8FF800F204D0
BB5003D004B0
B20009800590
69117C100750
08DEADC00A10
00000EF63600
000006EE7000
ENDCHAR
STARTCHAR f_b
ENCODING -1
SWIDTH 731 0
DWIDTH 12 0
BBX 13 21 -1 -3
BITMAP
00003CE9000000
0001C31C500000
0006700C800000
000B24EF600000
000E08FD200000
002F005AA00000
004F18FFB00000
27DF955EB00000
67BF200BB00000
006F2009B00000
006F3009B00000
006F3008A00000
006F4008A00000
005F4008DCEB10
005F5008D17F80
005F5008903FA0
005F600BB18F80
005F605FFFFA10
006FA062010000
009FFE50000000
06620000000000
ENDCHAR
STARTCHAR f_k
ENCODING -1
SWIDTH 708 0
DWIDTH 11 0
BBX 12 19 0 -3
BITMAP
000032000000
0016E2000000
08EFFEE70000
0109F39F2000
0056F5EF3000
00B1F5EB0000
01D1F4000000
04C0F4341000
3DB0F508FB10
17B0F61B3000
07A0F7C20000
08A0EEF30000
08A0E9D70140
08A0E98E1061
08B0EB1EA192
0BC0EC03CEA0
7FE2FF420000
009FFFFF2000
003100110000
ENDCHAR
STARTCHAR f_h
ENCODING -1
SWIDTH 873 0
DWIDTH 14 0
BBX 15 21 -1 -3
BITMAP
00002CE900000000
0000B31C50000000
0005600B80000000
000A24DF60000000
000D09FD46000000
001F0158E5000000
003F14FFF4000000
007FFC54F2000000
6CFF4002F1000000
228F2002F0000000
006F2003F0000000
006F3004E0000000
006F3005E2CEB100
005F4007E816F800
005F4008F301FA00
005F5009E001FA00
005F600BC002FB00
005F602FC009FFC0
006FA8FFF6141120
00BFFE5134000000
0772000000000000
ENDCHAR
ENDFONT
